<svg data-name="Group 22" xmlns="http://www.w3.org/2000/svg" width="148.147" height="52.389"><path data-name="Path 9" d="M23.415 12.866h-7a1.072 1.072 0 00-1.073 1.073V30.49a.73.73 0 00.73.73h2.02a.731.731 0 00.73-.73v-5.688h4.588a6.707 6.707 0 004.782-1.611 5.673 5.673 0 001.713-4.343 5.708 5.708 0 00-1.713-4.37 6.712 6.712 0 00-4.782-1.61m2.178 8.184a3.294 3.294 0 01-2.333.76h-4.429v-5.956h4.433a3.251 3.251 0 012.333.773 2.917 2.917 0 01.812 2.217 2.875 2.875 0 01-.812 2.2" fill="#6868ac"/><path data-name="Path 10" d="M42.437 21.603q0-3.994-5.541-4-5.11 0-5.865 3.654a.737.737 0 00.718.884h1.745a.724.724 0 00.7-.549 1.868 1.868 0 01.636-1.088 3.383 3.383 0 012.037-.478 3.3 3.3 0 011.869.4 1.444 1.444 0 01.554 1.251 1.252 1.252 0 01-.439 1.043 2.972 2.972 0 01-1.443.476l-2.011.181q-5.1.516-5.1 4.151a3.577 3.577 0 001.3 2.938 5.381 5.381 0 003.492 1.056 4.839 4.839 0 004.279-1.932 6.709 6.709 0 00.262 1.394.357.357 0 00.317.229h2.5a.315.315 0 00.3-.426 5.667 5.667 0 01-.315-2.1zm-3.143 4.357a3.042 3.042 0 01-.955 2.41 3.616 3.616 0 01-2.474.838 2.562 2.562 0 01-1.663-.476 1.626 1.626 0 01-.58-1.328 1.582 1.582 0 01.554-1.3 3.659 3.659 0 011.842-.606l1.753-.205a3.9 3.9 0 001.078-.268.319.319 0 01.444.3z" fill="#6868ac"/><path data-name="Path 11" d="M48.058 20.29v-1.463a.909.909 0 00-.908-.908h-1.329a.908.908 0 00-.908.908V30.49a.729.729 0 00.73.73h1.788a.73.73 0 00.73-.73v-6.025a3.645 3.645 0 01.992-2.771 3.982 3.982 0 012.849-.941h.825v-2.99a5.752 5.752 0 00-.8-.052 3.983 3.983 0 00-3.97 2.578" fill="#6868ac"/><path data-name="Path 12" d="M70.498 24.75a7.368 7.368 0 00-3.518-1.391l-1.677-.255a4.225 4.225 0 01-1.7-.58 1.216 1.216 0 01-.516-1.044q0-1.546 2.321-1.547a3.506 3.506 0 012.062.5 1.773 1.773 0 01.672 1.1.76.76 0 00.74.589h1.546a.771.771 0 00.755-.909q-.686-3.6-5.776-3.6a6.748 6.748 0 00-4.074 1.069 3.474 3.474 0 00-1.443 2.951q0 3.3 4.357 4.022l1.521.257a5.609 5.609 0 012.036.645 1.261 1.261 0 01.567 1.109q0 1.6-2.629 1.6a3.589 3.589 0 01-2.152-.515 2.046 2.046 0 01-.716-1.191.755.755 0 00-.736-.561h-1.663a.77.77 0 00-.751.921q.759 3.667 5.966 3.666a7.51 7.51 0 004.356-1.083 3.545 3.545 0 001.547-3.099 3.336 3.336 0 00-1.095-2.656" fill="#6868ac"/><path data-name="Path 13" d="M87.154 39.765a14.4 14.4 0 01-11.056-4.725.569.569 0 00-.783-.1l-1.469 1.12a.569.569 0 00-.1.81 17.364 17.364 0 0013.406 5.879 17.362 17.362 0 0013.411-5.877.569.569 0 00-.1-.81l-1.47-1.12a.57.57 0 00-.783.1 14.389 14.389 0 01-11.056 4.723" fill="#6868ac"/><path data-name="Path 14" d="M94.549 13.249H92.71a.909.909 0 00-.908.908v16.716a.73.73 0 00.73.73h1.788a.73.73 0 00.73-.73V13.75a.5.5 0 00-.5-.5" fill="#6868ac"/><path data-name="Path 15" d="M100.928 17.659l-3.248-.987v14.593a.323.323 0 00.323.323h2.6a.323.323 0 00.323-.323z" fill="#6868ac"/><path data-name="Path 16" d="M54.58 17.678l3.248-.987V31.28a.323.323 0 01-.323.323h-2.6a.323.323 0 01-.323-.323z" fill="#6868ac"/><path data-name="Path 17" d="M110.828 17.98a4.773 4.773 0 00-4.146 2.214v-1a.909.909 0 00-.908-.908h-1.327a.909.909 0 00-.908.908v12.064a.323.323 0 00.323.323h2.6a.323.323 0 00.323-.323v-7.123a3.163 3.163 0 011.494-2.953 2.976 2.976 0 011.638-.392 2.193 2.193 0 012.328 2.521v7.947a.323.323 0 00.323.323h2.6a.323.323 0 00.323-.323V22.77a4.79 4.79 0 00-1.25-3.542 4.613 4.613 0 00-3.413-1.249" fill="#6868ac"/><path data-name="Path 18" d="M124.093 17.98a6.309 6.309 0 00-4.766 1.906 7.047 7.047 0 00-1.8 5.048 6.985 6.985 0 001.829 5.048 6.336 6.336 0 004.79 1.906 6.646 6.646 0 004.018-1.2 5.547 5.547 0 002.162-3.23h-3.117a3.027 3.027 0 01-3.039 1.906 3.274 3.274 0 01-2.382-.863 4.044 4.044 0 01-1.069-2.563h9.942v-.772a7.507 7.507 0 00-1.777-5.2 6.116 6.116 0 00-4.79-1.983m-3.349 5.693q.463-3.168 3.322-3.168a3.123 3.123 0 012.267.85 3.882 3.882 0 011.082 2.319z" fill="#6868ac"/><path data-name="Path 19" d="M131.664 18.293a.409.409 0 00-.224-.4.442.442 0 00.269-.441.489.489 0 00-.183-.407.788.788 0 00-.5-.147h-.866v1.914h.433v-.711h.4a.23.23 0 01.175.054.339.339 0 01.065.194l.014.2a.581.581 0 00.067.262h.456a.475.475 0 01-.082-.262zm-.665-.546h-.411v-.471h.4c.184 0 .276.076.276.231s-.087.239-.262.239" fill="#6868ac"/><path data-name="Path 20" d="M130.895 16.029a1.863 1.863 0 00-1.352.537 1.831 1.831 0 000 2.624 1.981 1.981 0 002.713 0 1.85 1.85 0 000-2.624 1.873 1.873 0 00-1.361-.537m1.062 2.884a1.555 1.555 0 01-2.115-.008 1.363 1.363 0 01-.426-1.023 1.38 1.38 0 01.426-1.039 1.544 1.544 0 012.115 0 1.488 1.488 0 010 2.07" fill="#6868ac"/><path data-name="Path 21" d="M77.47 27.559h.007l1.05-2.964.7-1.986q1.01-2.695 1.962-5.469a.3.3 0 01.563 0q1.178 3.413 1.986 5.465l.722 1.986h-.023l1.068 2.968h.008l1.27 3.562a.729.729 0 00.688.485h2.106a.73.73 0 00.681-.993l-6.376-16.454a1.431 1.431 0 00-1.335-.914h-2.1a1.432 1.432 0 00-1.339.922l-6.263 16.446a.729.729 0 00.682.988h2.008a.73.73 0 00.689-.488z" fill="#6868ac"/><path data-name="Path 22" d="M144.454 52.389H3.692A3.7 3.7 0 010 48.7v-45A3.7 3.7 0 013.692 0h140.762a3.7 3.7 0 013.693 3.692v45a3.7 3.7 0 01-3.693 3.692M3.692 2.055a1.639 1.639 0 00-1.637 1.637v45a1.639 1.639 0 001.637 1.637h140.762a1.639 1.639 0 001.638-1.637v-45a1.639 1.639 0 00-1.638-1.637z" fill="#6868ac"/><path data-name="Path 23" d="M98.398 13.269h1.811a.693.693 0 01.694.692v2.366l-3.2-.987v-1.378a.692.692 0 01.692-.692" fill="#6868ac"/><path data-name="Path 24" d="M57.109 13.269h-1.81a.693.693 0 00-.694.692v2.366l3.2-.987v-1.378a.692.692 0 00-.692-.692" fill="#6868ac"/></svg>